<svg width="24" height="21" viewBox="0 0 24 21" fill="none" xmlns="http://www.w3.org/2000/svg">
<path d="M4.90516 13.8179C3.64759 14.555 0.350311 16.0601 2.35857 17.9435C3.33959 18.8635 4.4322 19.5215 5.80587 19.5215H13.6443C15.018 19.5215 16.1106 18.8635 17.0916 17.9435C19.0999 16.0601 15.8026 14.555 14.545 13.8179C11.596 12.0894 7.85415 12.0894 4.90516 13.8179Z" stroke="#2F80ED" stroke-width="2.72809" stroke-linecap="round" stroke-linejoin="round"/>
<path d="M13.7251 5.52344C13.7251 7.73258 11.9342 9.52344 9.7251 9.52344C7.51596 9.52344 5.7251 7.73258 5.7251 5.52344C5.7251 3.3143 7.51596 1.52344 9.7251 1.52344C11.9342 1.52344 13.7251 3.3143 13.7251 5.52344Z" stroke="#2F80ED" stroke-width="2.72809"/>
<path d="M19.2251 2.52148V7.52148M21.7251 5.02148L16.7251 5.02148" stroke="#2F80ED" stroke-width="2.72809" stroke-linecap="round" stroke-linejoin="round"/>
</svg>