<svg width="54" height="23" viewBox="0 0 54 23" fill="none" xmlns="http://www.w3.org/2000/svg">
<path d="M32.0727 22.764V19.4945C31.9974 19.5841 31.942 19.6346 31.9034 19.6967C31.348 20.58 30.71 21.3723 29.8627 21.9443C29.3615 22.2855 28.803 22.5162 28.2194 22.6232C28.0207 22.6593 27.5674 22.6896 27.3627 22.686C26.78 22.6752 26.4354 22.6911 25.8627 22.5091C24.518 22.083 23.528 21.1852 22.8774 19.8491C22.382 18.833 22.1627 17.7402 22.102 16.5984C22.034 15.2984 22.1587 14.0295 22.5847 12.8075C23.1814 11.098 24.228 9.82468 25.7454 8.9999C26.8107 8.4214 27.938 8.1419 29.118 8.06679C29.948 8.01334 30.7687 8.07473 31.5774 8.30079C31.6687 8.32534 31.76 8.35712 31.8707 8.39179C31.8707 8.27984 31.8754 8.1874 31.8707 8.09351C31.8354 7.38284 31.812 6.6729 31.7554 5.96368C31.658 4.73879 31.002 3.92484 30.0527 3.33984C29.996 3.3059 29.9407 3.26979 29.8334 3.20045L35.3987 1.4924C35.3987 1.72495 35.4034 1.93007 35.3987 2.13445C35.3754 3.05457 35.3347 3.9754 35.326 4.89623C35.3 7.85518 35.268 10.8127 35.274 13.7723C35.2767 15.2673 35.348 16.7616 35.41 18.2559C35.438 18.9066 35.5247 19.5545 35.7294 20.1756C35.9594 20.8761 36.3594 21.3766 37.1174 21.8786C35.4614 22.1559 33.6914 22.4917 32.074 22.7618M31.9347 14.205C31.9347 12.905 31.9334 11.6064 31.938 10.3064C31.938 10.1713 31.8974 10.1071 31.7887 10.0348C31.2954 9.70695 30.7567 9.53651 30.1934 9.43901C29.4067 9.30251 28.6527 9.40145 27.96 9.84851C27.074 10.4191 26.5587 11.3002 26.2407 12.333C25.8714 13.534 25.79 14.7712 25.8847 16.0257C25.934 16.6843 26.0467 17.3322 26.28 17.9468C26.7554 19.1962 27.6194 19.8852 28.858 20.0297C29.8987 20.1525 30.8827 19.9026 31.844 19.4981C31.9707 19.4447 31.9907 19.3508 31.984 19.2201C31.964 18.6278 31.9394 18.0335 31.9347 17.4391C31.928 16.3615 31.9334 15.284 31.932 14.2064L31.9347 14.205ZM0.770048 19.314C0.804714 18.2429 1.33538 17.5012 1.54338 17.2419C2.14805 16.4922 2.94805 16.0863 3.80338 15.7946C5.11471 15.3475 6.46271 15.2385 7.82738 15.3475C8.00271 15.362 8.06071 15.3071 8.06538 15.1157C8.07671 14.5213 8.13205 13.9269 8.12071 13.334C8.10271 12.4167 7.77805 11.6577 7.02205 11.1731C6.62071 10.916 6.17271 10.8076 5.71338 10.7607C4.31205 10.6206 3.03071 11.0496 1.80338 11.7328C1.77271 11.7501 1.74071 11.766 1.66538 11.8065C1.69605 11.7032 1.71071 11.6389 1.73205 11.5775C2.24938 10.1266 3.17871 9.10101 4.50471 8.52973C6.06405 7.85807 7.63938 7.84651 9.18005 8.61062C10.5554 9.2924 11.2887 10.5079 11.442 12.1091C11.5087 12.8053 11.4754 13.5174 11.4307 14.218C11.3407 15.6675 11.294 17.1148 11.3827 18.5643C11.452 19.7249 11.9554 20.5634 12.984 20.9888C13.124 21.0466 13.2654 21.108 13.404 21.1672L13.5607 21.238C13.436 21.3528 13.336 21.4532 13.2287 21.542C12.542 22.1147 11.774 22.5055 10.9147 22.6181C10.4955 22.675 10.0705 22.6569 9.65671 22.5647C8.94071 22.3986 8.52738 21.815 8.27671 21.113C8.13805 20.7223 8.06671 20.3034 7.96071 19.8802C7.93071 19.9271 7.88871 19.9835 7.85805 20.0448C7.19871 21.3398 6.23205 22.257 4.89138 22.5618C4.09871 22.7423 3.30738 22.7322 2.58138 22.3906C2.30772 22.2627 2.0528 22.0922 1.82471 21.8843C1.40409 21.4919 1.0892 20.9836 0.913381 20.4132C0.806424 20.0592 0.757463 19.6877 0.768714 19.3154L0.770048 19.314ZM8.01605 17.5886C8.01605 17.5886 8.02271 16.3008 8.02471 15.6487C8.02471 15.5403 8.02471 15.4465 7.88471 15.4746C7.02338 15.6472 6.16671 15.8415 5.39605 16.3138C4.63338 16.7797 4.13205 17.4333 4.17271 18.4495C4.20138 19.1854 4.51738 19.6902 5.14938 19.9394C6.09138 20.3113 7.00138 20.0983 7.89605 19.7249C7.93938 19.7076 7.98138 19.6195 7.98271 19.5631C7.98871 18.911 8.01738 18.2415 8.01738 17.5886H8.01605ZM18.4647 0.910288C19.5014 0.899455 20.3374 2.13157 20.1447 3.34851C19.9587 4.5279 18.872 5.52384 17.7667 5.49351C16.9647 5.47184 16.3214 5.11434 15.9467 4.32857C15.5767 3.55434 15.6694 2.78879 16.1014 2.06584C16.4187 1.53429 16.8694 1.18618 17.4147 0.983955C17.5794 0.922566 17.766 0.929066 17.9547 0.902344M37.5834 9.73729C39.3974 9.17034 41.1921 8.60701 43.0047 8.04079L42.9207 11.0994C42.9474 11.1146 42.9727 11.1305 42.9974 11.1463C43.032 11.0864 43.06 11.0221 43.1034 10.9708C43.822 10.1128 44.6134 9.34729 45.5641 8.80634C46.8174 8.09423 48.1421 7.83568 49.5374 8.2264C50.3554 8.45534 50.9701 8.97895 51.4014 9.76329C51.8187 10.5187 52 11.3529 52.0987 12.2123C52.2281 13.3311 52.2034 14.4534 52.2014 15.5779C52.2001 16.8765 52.1947 18.1765 52.3881 19.4678C52.5541 20.567 52.9947 21.4813 53.828 22.1552C53.8741 22.1927 53.9281 22.2231 53.9594 22.2902C51.4947 22.278 49.0507 22.1617 46.5961 22.3155C46.7914 22.1277 46.9887 21.94 47.1827 21.7507C47.7047 21.2445 48.1667 20.6905 48.4061 19.9582C48.6034 19.3515 48.7107 18.7196 48.7347 18.0797C48.7701 17.1336 48.7847 16.1867 48.7754 15.2392C48.7719 14.455 48.676 13.6744 48.4901 12.9165C48.3581 12.3886 48.148 11.904 47.7934 11.4973C47.4047 11.0539 46.918 10.8618 46.376 10.8026C45.296 10.687 44.2494 10.9066 43.2134 11.2041C43.1527 11.2215 43.0847 11.3168 43.07 11.3876C43.0427 11.5197 43.048 11.6606 43.048 11.7971C43.048 13.1303 43.038 14.4628 43.0514 15.796C43.0601 16.7891 43.0874 17.78 43.1247 18.7716C43.1467 19.3327 43.2354 19.886 43.4267 20.4146C43.6847 21.1231 44.1741 21.6207 44.7207 22.0663C44.8161 22.1443 44.916 22.2166 45.0121 22.3155C42.6008 22.2084 40.1864 22.2187 37.776 22.3466C37.8787 22.2418 37.944 22.1776 38.0047 22.1097C38.2834 21.8013 38.5774 21.5095 38.8327 21.178C39.326 20.5367 39.5367 19.756 39.5674 18.9463C39.6194 17.5712 39.618 16.1925 39.6194 14.816C39.6194 14.2295 39.5847 13.6416 39.5427 13.0566C39.4574 11.8628 39.0094 10.8733 38.098 10.1583C37.928 10.0262 37.766 9.8839 37.5887 9.73512L37.5834 9.73801V9.73729ZM21.408 22.3141H13.89C13.9667 22.2418 14.0167 22.1927 14.0694 22.1443C14.6374 21.6251 15.1407 21.048 15.4054 20.2767C15.5987 19.7133 15.678 19.1226 15.692 18.5289C15.7227 17.2766 15.7387 16.0235 15.7287 14.7705C15.722 13.8843 15.684 12.9967 15.458 12.1329C15.2807 11.4627 14.936 10.9188 14.4607 10.4646C14.2087 10.2226 13.9494 9.98862 13.6794 9.73801L19.2347 8.0379C19.2347 8.14118 19.2374 8.20257 19.2347 8.26395C19.2154 8.64168 19.182 9.0194 19.178 9.39784C19.168 10.2855 19.1734 11.1731 19.168 12.0607C19.1607 12.975 19.13 13.8893 19.1374 14.8015C19.146 15.9498 19.1647 17.0996 19.2187 18.2472C19.2434 18.7708 19.3374 19.2966 19.4447 19.8094C19.6214 20.6558 20.0914 21.2993 20.736 21.7977C20.966 21.9768 21.1967 22.1516 21.4094 22.3141H21.408Z" fill="#71767D"/>
</svg>
