<svg width="49" height="37" viewBox="0 0 49 37" fill="none" xmlns="http://www.w3.org/2000/svg">
<path fill-rule="evenodd" clip-rule="evenodd" d="M35.7927 7.33186V9.15886C40.6618 8.45566 43.2027 8.80846 43.4127 9.93286C43.6263 11.6189 38.8251 13.6583 37.9083 14.0117C37.8363 14.0813 37.7673 14.0117 37.6971 13.9421L37.6959 13.9409C37.6914 13.9028 37.6954 13.8642 37.7077 13.8279C37.7199 13.7915 37.7401 13.7584 37.7667 13.7309C40.3071 12.6041 42.9207 10.9847 42.5667 10.1417C42.0723 9.15646 37.1991 9.64846 26.6109 12.2525C13.9737 15.3479 7.90295 14.9261 7.40855 13.3775C6.91415 11.9705 10.8675 10.3523 11.7855 10.0019H11.8557V10.0715C11.7489 10.1285 11.6097 10.1987 11.4495 10.2809C10.2315 10.9001 7.74755 12.1631 8.18735 13.0937C8.40095 13.7297 10.4469 13.8695 13.9761 13.4477V9.43846C13.9707 9.12721 14.0585 8.82145 14.2283 8.56054C14.3981 8.29963 14.6421 8.09551 14.9289 7.97446C15.1194 7.89431 15.3239 7.85298 15.5304 7.85291C15.737 7.85284 15.9416 7.89403 16.132 7.97406C16.3225 8.05409 16.4951 8.17135 16.6396 8.31896C16.7841 8.46657 16.8977 8.64156 16.9737 8.83366C17.0505 9.02566 17.0877 9.23146 17.0835 9.43846V13.0271C17.8035 12.9251 18.5235 12.7853 19.2975 12.6353C19.5855 12.5789 19.8825 12.5213 20.1891 12.4637V4.79926C20.2002 4.39421 20.3687 4.00942 20.6589 3.72657C20.949 3.44371 21.3379 3.28505 21.7431 3.28426C22.1486 3.28415 22.538 3.44263 22.8282 3.72584C23.1184 4.00905 23.2862 4.39452 23.2959 4.79986V11.7653L23.3397 11.7551C24.2439 11.5475 25.1481 11.3399 26.1195 11.1317C26.2058 11.0828 26.3037 11.0585 26.4027 11.0615V2.05306C26.4078 1.64335 26.5732 1.25191 26.8634 0.962739C27.1537 0.673565 27.5458 0.509688 27.9555 0.506265H27.9633C28.2761 0.499177 28.584 0.585231 28.8477 0.753494C29.1115 0.921758 29.3193 1.16463 29.4447 1.45126C29.5287 1.64146 29.5737 1.84606 29.5785 2.05366V10.2857L29.6145 10.2791C30.6621 10.0697 31.7079 9.86086 32.6139 9.65266V7.33186C32.6144 6.91015 32.782 6.50582 33.0801 6.20745C33.3781 5.90909 33.7822 5.74102 34.2039 5.74006C34.4129 5.73991 34.6199 5.78098 34.813 5.86095C35.0061 5.94091 35.1815 6.05818 35.3292 6.20605C35.4769 6.35392 35.594 6.52947 35.6738 6.72266C35.7535 6.91584 35.7943 7.12287 35.7939 7.33186H35.7927ZM13.9923 16.5647V17.7443C14.0002 18.1471 14.1655 18.5308 14.4528 18.8132C14.7402 19.0956 15.1267 19.2542 15.5295 19.2551C15.9327 19.2553 16.3198 19.097 16.6072 18.8143C16.8947 18.5317 17.0595 18.1474 17.0661 17.7443V16.2161C16.0488 16.3888 15.0226 16.5055 13.9923 16.5647ZM20.1981 15.6947V19.9829C20.1923 20.2872 20.2766 20.5864 20.4405 20.8429C20.6044 21.0993 20.8405 21.3015 21.1191 21.4241C21.3509 21.526 21.6043 21.569 21.8567 21.5493C22.1091 21.5297 22.3528 21.4479 22.566 21.3113C22.7792 21.1747 22.9553 20.9876 23.0787 20.7665C23.202 20.5454 23.2688 20.2972 23.2731 20.0441V15.0623C22.2619 15.3343 21.2352 15.5456 20.1987 15.6953L20.1981 15.6947ZM26.6163 14.3765H26.4045V17.3909C26.4219 17.8025 26.5973 18.1916 26.8944 18.4771C27.1915 18.7626 27.5873 18.9224 27.9993 18.9233C28.4116 18.9234 28.8079 18.7639 29.1052 18.4782C29.4024 18.1925 29.5774 17.8028 29.5935 17.3909V13.6757L28.9455 13.8221C28.2111 13.9865 27.4359 14.1605 26.6163 14.3777V14.3765ZM32.6127 12.9767V14.7953C32.6215 15.1077 32.7224 15.4105 32.9028 15.6657C33.0832 15.9208 33.3351 16.1169 33.6267 16.2293C33.82 16.3037 34.0263 16.3391 34.2339 16.3331H34.2417C34.6509 16.3322 35.0434 16.1705 35.3345 15.883C35.6257 15.5954 35.7922 15.205 35.7981 14.7959V12.3485C34.8771 12.5573 33.8139 12.7673 32.6079 12.9773L32.6127 12.9767ZM23.0079 35.8751C22.5953 36.0918 22.1551 36.2512 21.6993 36.3491C21.2421 36.4463 20.7759 36.4949 20.3085 36.4943C19.8347 36.4993 19.3639 36.4192 18.9183 36.2579C18.509 36.1096 18.1345 35.8788 17.8179 35.5799C17.5042 35.2784 17.258 34.9137 17.0955 34.5101C16.7503 33.6074 16.7503 32.609 17.0955 31.7063C17.258 31.3028 17.5042 30.9383 17.8179 30.6371C18.1344 30.3379 18.509 30.107 18.9183 29.9585C19.3638 29.7969 19.8347 29.7166 20.3085 29.7215C20.7889 29.7173 21.2675 29.7801 21.7305 29.9081C22.1565 30.0281 22.5471 30.2489 22.8711 30.5501L21.8715 31.6421C21.6863 31.4481 21.4639 31.2934 21.2175 31.1873C20.9745 31.0841 20.6715 31.0331 20.3079 31.0331C20.0259 31.0289 19.7469 31.0811 19.4859 31.1873C19.2461 31.287 19.0298 31.436 18.8512 31.6246C18.6726 31.8132 18.5356 32.0373 18.4491 32.2823C18.2615 32.8204 18.2615 33.4062 18.4491 33.9443C18.5385 34.1867 18.6759 34.4087 18.8535 34.5965C19.0311 34.7843 19.2465 34.9325 19.4853 35.0315C19.7469 35.1377 20.0265 35.1905 20.3079 35.1863C20.5785 35.1923 20.8479 35.1563 21.1083 35.0813C21.2931 35.0273 21.4725 34.9559 21.6441 34.8677V33.8177H20.4903V32.5073H23.0079V35.8751ZM4.81595 31.1693C5.01515 31.2575 5.19095 31.3913 5.32895 31.5611L6.41975 30.6683C6.28503 30.4971 6.1257 30.3469 5.94695 30.2225C5.77608 30.1036 5.59156 30.0057 5.39735 29.9309C5.20898 29.8591 5.01405 29.8058 4.81535 29.7719C4.62767 29.7393 4.43762 29.7225 4.24715 29.7215C3.77309 29.7165 3.30201 29.7968 2.85635 29.9585C2.44748 30.107 2.07339 30.3378 1.75715 30.6365C1.44309 30.9378 1.19665 31.3025 1.03415 31.7063C0.688854 32.609 0.688854 33.6074 1.03415 34.5101C1.19675 34.9139 1.44335 35.2781 1.75715 35.5793C2.07336 35.878 2.44746 36.1088 2.85635 36.2573C3.30172 36.4183 3.77237 36.4982 4.24595 36.4931C4.68995 36.4931 5.12975 36.4007 5.53655 36.2213C5.95387 36.0405 6.3128 35.7474 6.57335 35.3747L5.39135 34.4921C5.25155 34.7051 5.06135 34.8803 4.83755 35.0015C4.59935 35.1263 4.33355 35.1887 4.06475 35.1839C3.81817 35.1856 3.57429 35.1325 3.35075 35.0285C3.13022 34.9254 2.93378 34.7772 2.77415 34.5935C2.60595 34.4018 2.47473 34.1807 2.38715 33.9413C2.19949 33.4032 2.19949 32.8174 2.38715 32.2793C2.4745 32.0364 2.60726 31.8125 2.77835 31.6193C2.94573 31.4324 3.1511 31.2834 3.38071 31.1823C3.61032 31.0812 3.85888 31.0303 4.10975 31.0331C4.35216 31.0277 4.59292 31.0741 4.81595 31.1693ZM8.39555 31.7063C8.21825 32.152 8.13058 32.6282 8.13755 33.1079C8.13095 33.5879 8.21795 34.0643 8.39555 34.5101C8.55755 34.9139 8.80415 35.2781 9.11795 35.5793C9.43434 35.8781 9.80865 36.1088 10.2177 36.2573C11.1177 36.5729 12.0987 36.5729 12.9987 36.2573C13.4081 36.109 13.7826 35.8782 14.0991 35.5793C14.4129 35.278 14.6591 34.9136 14.8215 34.5101C15.1668 33.6074 15.1668 32.609 14.8215 31.7063C14.6591 31.3027 14.4129 30.9383 14.0991 30.6371C13.7826 30.3379 13.4081 30.107 12.9987 29.9585C12.0986 29.6431 11.1179 29.6431 10.2177 29.9585C9.80867 30.1069 9.43436 30.3377 9.11795 30.6365C8.80411 30.9379 8.55788 31.3025 8.39555 31.7063ZM9.75275 33.9413C9.65578 33.6742 9.60761 33.3919 9.61055 33.1079C9.60839 32.8256 9.65654 32.5452 9.75275 32.2799C9.83887 32.035 9.97552 31.811 10.1538 31.6223C10.3321 31.4337 10.5481 31.2846 10.7877 31.1849C11.3168 30.9789 11.9039 30.9789 12.4329 31.1849C12.6734 31.2844 12.8901 31.4337 13.0688 31.623C13.2475 31.8122 13.3841 32.0371 13.4697 32.2829C13.6574 32.821 13.6574 33.4068 13.4697 33.9449C13.38 34.1871 13.2422 34.4087 13.0647 34.5965C12.8871 34.7831 12.6723 34.9302 12.4341 35.0285C11.9052 35.2351 11.3179 35.2351 10.7889 35.0285C10.55 34.9294 10.3347 34.7809 10.1571 34.5929C9.97949 34.4052 9.84189 34.1839 9.75275 33.9413ZM27.3171 29.8859H25.3905V36.3305H26.8065V31.7423H26.8245L29.6331 36.3305H31.4889V29.8865H30.0711V34.3643H30.0531L27.3171 29.8859ZM33.9159 29.8859H35.3331V36.3305H33.9159V29.8859ZM37.1685 31.1423H39.0046V36.3305H40.4229V31.1423H42.2589V29.8859H37.1685V31.1423ZM44.1675 29.8859H48.5397V31.1963H45.5847V32.3981H48.3747V33.7091H45.5847V35.0201H48.7023V36.3305H44.1663V29.8865L44.1675 29.8859Z" fill="#71767D"/>
</svg>
