<svg width="16" height="14" viewBox="0 0 16 14" fill="none" xmlns="http://www.w3.org/2000/svg">
<path d="M6.35841 12.8288C6.28652 12.7588 5.9791 12.4943 5.72622 12.2479C4.13584 10.8037 1.53271 7.03602 0.738137 5.06403C0.61046 4.76455 0.34023 4.0074 0.322876 3.60286C0.322876 3.21522 0.412126 2.8457 0.593105 2.49309C0.845981 2.05353 1.24389 1.70091 1.71369 1.5077C2.0397 1.38332 3.01525 1.19011 3.03261 1.19011C4.09989 0.996892 5.83407 0.890625 7.75047 0.890625C9.57637 0.890625 11.2399 0.996892 12.3233 1.15509C12.3406 1.1732 13.553 1.36641 13.9682 1.57774C14.7268 1.96537 15.1979 2.72253 15.1979 3.53282V3.60286C15.1793 4.13057 14.7083 5.24034 14.6909 5.24034C13.8951 7.10606 11.4196 10.7868 9.77471 12.2661C9.77471 12.2661 9.35201 12.6827 9.08798 12.8638C8.70866 13.1464 8.23886 13.2865 7.76906 13.2865C7.24472 13.2865 6.75632 13.1283 6.35841 12.8288Z" fill="black"/>
</svg>