<svg width="38" height="38" viewBox="0 0 38 38" fill="none" xmlns="http://www.w3.org/2000/svg">
<circle cx="19.0331" cy="19.0955" r="18.658" fill="#DAD9F5"/>
<path fill-rule="evenodd" clip-rule="evenodd" d="M18.2266 17.0469C20.2804 17.0469 21.9454 15.3819 21.9454 13.3281C21.9454 11.2743 20.2804 9.60938 18.2266 9.60938C16.1728 9.60938 14.5079 11.2743 14.5079 13.3281C14.5079 15.3819 16.1728 17.0469 18.2266 17.0469ZM18.2266 26.9626C22.3342 26.9626 25.6641 25.2976 25.6641 23.2438C25.6641 21.19 22.3342 19.5251 18.2266 19.5251C14.119 19.5251 10.7891 21.19 10.7891 23.2438C10.7891 25.2976 14.119 26.9626 18.2266 26.9626ZM11.2622 19.5483C8.20082 19.7371 5.83075 21.0421 5.83075 22.6238C5.83075 23.9278 7.44158 25.0437 9.72258 25.5012C9.21287 24.811 8.92971 24.0471 8.92971 23.2436C8.92971 21.8262 9.81076 20.5323 11.2622 19.5483ZM27.5236 23.2436C27.5236 24.0471 27.2404 24.811 26.7307 25.5012C29.0117 25.0437 30.6225 23.9278 30.6225 22.6238C30.6225 21.0421 28.2525 19.7371 25.1911 19.5483C26.6425 20.5323 27.5236 21.8262 27.5236 23.2436ZM22.8357 16.47C23.4471 15.575 23.8047 14.4928 23.8047 13.3272C23.8047 12.9403 23.7653 12.5627 23.6904 12.1981C23.9223 12.1263 24.1689 12.0876 24.4245 12.0876C25.7937 12.0876 26.9036 13.1975 26.9036 14.5667C26.9036 15.936 25.7937 17.0459 24.4245 17.0459C23.8199 17.0459 23.2659 16.8295 22.8357 16.47ZM12.0287 12.0876C12.2843 12.0876 12.5308 12.1263 12.7628 12.1981C12.6878 12.5627 12.6485 12.9403 12.6485 13.3272C12.6485 14.4928 13.006 15.575 13.6175 16.47C13.1872 16.8295 12.6332 17.0459 12.0287 17.0459C10.6595 17.0459 9.5495 15.936 9.5495 14.5667C9.5495 13.1975 10.6595 12.0876 12.0287 12.0876Z" fill="#44408A"/>
</svg>