<svg width="143" height="27" viewBox="0 0 143 27" fill="none" xmlns="http://www.w3.org/2000/svg">
<path d="M11.6299 19.4795L5.34504 13.2726C4.82701 12.7698 4.13349 12.4886 3.41158 12.4886C2.68968 12.4886 1.99616 12.7698 1.47813 13.2726C1.22657 13.523 1.02695 13.8206 0.890745 14.1483C0.754536 14.4761 0.684418 14.8275 0.684418 15.1824C0.684418 15.5373 0.754536 15.8888 0.890745 16.2165C1.02695 16.5443 1.22657 16.8419 1.47813 17.0922L9.72013 25.2326C10.2354 25.7407 10.9299 26.0256 11.6536 26.0256C12.3772 26.0256 13.0718 25.7407 13.587 25.2326L16.8796 21.959L12.9205 18.2067L11.6299 19.4795ZM23.2579 19.4795L21.3244 17.5697L33.4109 5.60969C34.4698 4.56378 34.4934 2.83478 33.4109 1.78887C32.3283 0.742965 30.6017 0.720511 29.5428 1.78887L23.2579 7.99697L16.9493 1.76642C16.4313 1.26364 15.7378 0.982422 15.0159 0.982422C14.2939 0.982422 13.6004 1.26364 13.0824 1.76642C12.8308 2.0168 12.6312 2.3144 12.495 2.64215C12.3588 2.96989 12.2887 3.32132 12.2887 3.67624C12.2887 4.03116 12.3588 4.38259 12.495 4.71033C12.6312 5.03807 12.8308 5.33568 13.0824 5.58606L19.3673 11.7941L17.4339 13.704L11.1478 7.49706C10.6297 6.99427 9.93622 6.71306 9.21431 6.71306C8.4924 6.71306 7.79889 6.99427 7.28086 7.49706C7.0293 7.74743 6.82968 8.04504 6.69347 8.37278C6.55726 8.70053 6.48714 9.05195 6.48714 9.40688C6.48714 9.7618 6.55726 10.1132 6.69347 10.441C6.82968 10.7687 7.0293 11.0663 7.28086 11.3167L21.3008 25.1877C21.8161 25.6962 22.5109 25.9812 23.2348 25.9812C23.9587 25.9812 24.6535 25.6962 25.1689 25.1877L28.4839 21.9129L24.5933 18.0932L23.2579 19.4795Z" fill="#71767D"/>
<path d="M41.1447 13.2483L34.8609 19.4564L32.9263 17.5466L39.2112 11.3385C39.4628 11.0881 39.6624 10.7905 39.7986 10.4628C39.9348 10.135 40.0049 9.78361 40.0049 9.42869C40.0049 9.07377 39.9348 8.72234 39.7986 8.3946C39.6624 8.06685 39.4628 7.76924 39.2112 7.51887C38.6932 7.01609 37.9997 6.73487 37.2778 6.73487C36.5559 6.73487 35.8623 7.01609 35.3443 7.51887L29.0582 13.7258L27.6779 12.362L23.8322 16.2265L32.9263 25.2083C33.4416 25.7168 34.1364 26.0019 34.8604 26.0019C35.5843 26.0019 36.2791 25.7168 36.7944 25.2083L45.0364 17.0691C45.2847 16.814 45.4795 16.512 45.6095 16.1806C45.7395 15.8492 45.802 15.4952 45.7935 15.1394C45.7849 14.7835 45.7053 14.4329 45.5595 14.1082C45.4137 13.7835 45.2045 13.4912 44.9442 13.2483C44.4294 12.7662 43.7504 12.4979 43.045 12.4979C42.3397 12.4979 41.6607 12.7662 41.1459 13.2483H41.1447ZM104.873 20.5933C103.606 20.5933 102.755 19.798 102.755 18.433V12.4979H106.853V9.79151H102.755V5.29114H99.5312V9.79387H96.9761V12.5002H99.5312V18.4341C99.5312 21.6865 101.488 23.4368 104.596 23.4368C105.657 23.4625 106.703 23.1867 107.612 22.6414L106.762 20.1395C106.183 20.4551 105.532 20.6109 104.873 20.5933ZM142.419 16.3636C142.419 12.6125 140.37 9.54214 136.203 9.54214C132.312 9.54214 129.549 12.4979 129.549 16.5231C129.549 20.5484 132.244 23.4581 136.433 23.4581C138.944 23.4581 140.716 22.6402 142.051 21.0471L139.818 19.2283C139.173 20.0698 138.045 20.7753 136.457 20.7753C134.201 20.7753 132.912 19.616 132.819 17.4781H142.419V16.3636ZM132.842 15.1818C132.958 13.3169 134.246 12.0665 136.157 12.0665C138.068 12.0665 139.173 13.3393 139.265 15.1818H132.842ZM59.9781 3.65314H56.617V23.1862H68.9564V20.2293H59.9781V3.65432V3.65314ZM122.806 20.6607C120.412 20.6607 119.099 18.8194 119.099 16.4771C119.099 14.1359 120.365 12.2934 122.782 12.2934C124.278 12.2934 125.292 13.1349 125.913 14.2032L128.262 12.453C127.686 11.5202 126.874 10.756 125.908 10.2371C124.942 9.71816 123.856 9.46298 122.76 9.49723C118.593 9.49723 115.807 12.4305 115.807 16.4546C115.807 20.5023 118.615 23.4131 122.782 23.4131C125.038 23.4805 127.156 22.3672 128.331 20.4562L126.005 18.6835C125.337 19.7968 124.278 20.6619 122.806 20.6619V20.6607ZM111.386 3.53969C110.875 3.52677 110.379 3.71462 110.004 4.06299C109.63 4.41136 109.407 4.89254 109.383 5.40342V5.51805C109.383 6.60887 110.281 7.49523 111.386 7.49523C112.491 7.49523 113.389 6.60887 113.389 5.51805C113.413 4.44851 112.56 3.5846 111.501 3.53969H111.386ZM93.7521 20.5933C92.4852 20.5933 91.6331 19.798 91.6331 18.433V12.4979H95.7317V9.79151H91.632V5.29114H88.4091V9.79387H85.854V12.5002H88.4091V18.4341C88.4091 21.6865 90.3662 23.4368 93.4744 23.4368C94.5348 23.4625 95.5806 23.1867 96.4904 22.6414L95.6383 20.1395C95.0603 20.455 94.4092 20.6119 93.7509 20.5945L93.7521 20.5933ZM112.976 9.79269H109.752V23.1851H112.976V9.79269ZM80.3988 11.361C79.6389 10.3611 78.2809 9.51969 76.2317 9.51969C72.5479 9.51969 70.0389 12.453 70.0389 16.4771C70.0389 20.5248 72.5479 23.4356 76.2317 23.4356C78.2809 23.4356 79.6625 22.6166 80.3988 21.5931L80.5607 23.1626H83.4609V9.76905H80.5607L80.3988 11.361ZM80.238 18.6374C79.5018 19.7743 78.5338 20.6382 76.923 20.6382C74.8277 20.6382 73.3078 19.0239 73.3078 16.5007C73.3078 13.9763 74.8052 12.362 76.923 12.362C78.5338 12.362 79.5006 13.2034 80.238 14.3628V18.6374Z" fill="#71767D"/>
</svg>
