<svg width="31" height="30" viewBox="0 0 31 30" fill="none" xmlns="http://www.w3.org/2000/svg">
<path d="M9.69343 17.2741C11.7908 17.2741 13.4717 18.9713 13.4717 21.0836V26.1545C13.4717 28.2518 11.7908 29.9625 9.69343 29.9625H4.66567C2.58317 29.9625 0.887421 28.2518 0.887421 26.1545V21.0836C0.887421 18.9713 2.58317 17.2741 4.66567 17.2741H9.69343ZM26.8593 17.2741C28.9418 17.2741 30.6376 18.9713 30.6376 21.0836V26.1545C30.6376 28.2518 28.9418 29.9625 26.8593 29.9625H21.8316C19.7342 29.9625 18.0533 28.2518 18.0533 26.1545V21.0836C18.0533 18.9713 19.7342 17.2741 21.8316 17.2741H26.8593ZM9.69343 0.212891C11.7908 0.212891 13.4717 1.92352 13.4717 4.02238V9.09327C13.4717 11.2055 11.7908 12.9013 9.69343 12.9013H4.66567C2.58317 12.9013 0.887421 11.2055 0.887421 9.09327V4.02238C0.887421 1.92352 2.58317 0.212891 4.66567 0.212891H9.69343ZM26.8593 0.212891C28.9418 0.212891 30.6376 1.92352 30.6376 4.02238V9.09327C30.6376 11.2055 28.9418 12.9013 26.8593 12.9013H21.8316C19.7342 12.9013 18.0533 11.2055 18.0533 9.09327V4.02238C18.0533 1.92352 19.7342 0.212891 21.8316 0.212891H26.8593Z" fill="#4C4958"/>
</svg>