<svg width="142" height="26" viewBox="0 0 142 26" fill="none" xmlns="http://www.w3.org/2000/svg">
<path d="M17.1542 21.0503C17.3905 19.709 16.8847 18.3333 15.8376 17.395C15.0665 16.7062 14.0695 16.3244 13.0355 16.3219C12.4271 16.3246 11.8261 16.1871 11.2794 15.9201C10.582 15.5567 10.0067 14.9966 9.62481 14.3093C9.82899 13.7624 9.9319 13.1829 9.92854 12.5992C9.92854 14.2762 11.3124 15.6175 13.0013 15.6175H13.0686C14.7574 15.5844 16.074 14.2431 16.074 12.5992C16.074 11.9964 16.1756 11.4256 16.3777 10.8891C16.7184 10.0334 17.2915 9.29007 18.0323 8.74289C18.9541 8.07726 20.0702 7.73528 21.2066 7.77026C20.3959 6.46198 19.2814 5.32271 17.8975 4.55098V4.78616C17.898 5.82914 17.5536 6.84299 16.9178 7.6698C16.7314 7.51302 16.5276 7.37819 16.3104 7.26798C16.8658 6.57358 17.1639 5.70842 17.1542 4.81925C17.1542 4.28271 17.0537 3.77926 16.8504 3.27698C16.5335 2.542 16.0115 1.91391 15.3469 1.46789C14.6822 1.02188 13.9032 0.776828 13.1029 0.762074H12.8996C11.8734 0.759263 10.8514 0.894413 9.86118 1.16389C5.67399 2.27007 2.39918 5.45626 1.28472 9.54771C0.57563 10.3868 0.135994 11.4256 0.135994 12.4987C0.204539 5.65598 5.87608 0.0896193 12.8996 0.0234375H13.2376C20.2269 0.125074 25.8665 5.65716 25.9339 12.4987V12.767C25.9013 13.8532 25.4961 14.8951 24.7864 15.718C24.1052 16.5017 23.1962 17.0529 22.1864 17.2945C21.8108 17.3885 21.4247 17.4334 21.0376 17.4281C19.9789 17.4299 18.9481 17.0886 18.0996 16.4554C17.7959 16.8573 17.4248 17.1929 17.0194 17.5285C17.6954 18.4007 18.0665 19.5412 17.9992 20.6485C19.3508 19.8642 20.4876 18.7579 21.3083 17.4281C21.612 17.395 21.9157 17.3607 22.2194 17.2945C21.2238 19.116 19.7069 20.5987 17.8633 21.5526C16.3873 22.2992 14.757 22.6898 13.1029 22.6931C12.748 22.6942 12.3973 22.6165 12.076 22.4657C11.7548 22.3149 11.471 22.0946 11.2451 21.8209C10.9414 21.4191 10.7724 20.9487 10.7724 20.4464C10.7724 19.7752 11.1104 19.1382 11.5831 18.7021C12.0558 18.8025 12.5628 18.8699 13.1029 18.8699C12.2248 18.8699 11.4814 19.5743 11.4814 20.4464C11.4814 21.3186 12.1905 22.0218 13.1029 22.0218H13.136C14.0141 22.0218 14.7574 21.3186 14.7574 20.4464C14.7574 19.5743 14.0484 18.8699 13.136 18.8699C11.9542 18.8699 10.8066 18.5354 9.79381 17.9646C9.59054 17.8311 9.35418 17.6963 9.18636 17.5628C8.77495 17.249 8.401 16.889 8.0719 16.4897C8.27399 16.355 8.44299 16.1872 8.64508 16.0193C9.08472 16.5902 9.65908 17.0924 10.3339 17.4612C11.1908 17.9395 12.1546 18.1936 13.136 18.1998C13.7104 18.1998 14.2504 18.4007 14.6558 18.7363C15.1628 19.1382 15.4665 19.7763 15.4665 20.4795C15.4665 20.983 15.2975 21.4522 14.9938 21.8552C15.7623 21.6954 16.5098 21.4475 17.2215 21.1165L17.1542 21.0503ZM22.4215 10.8217C22.2766 10.0534 22.0269 9.30856 21.6794 8.60816C20.5318 8.44153 19.3831 8.7098 18.505 9.37989C17.9935 9.75429 17.5772 10.2437 17.2898 10.8087C17.0024 11.3737 16.8519 11.9984 16.8504 12.6323C16.8504 13.2362 16.7157 13.807 16.412 14.3435C16.074 15.0136 15.4665 15.5844 14.7905 15.9532C15.4166 16.185 15.9906 16.5384 16.4794 16.9932C17.0572 16.5487 17.5493 16.0029 17.9318 15.3823C18.4275 14.5514 18.6843 13.5998 18.674 12.6323C18.674 12.0626 18.8761 11.5592 19.2484 11.1573C19.637 10.7105 20.1805 10.4274 20.7695 10.3651C21.3585 10.3028 21.9492 10.466 22.4227 10.8217H22.4215ZM22.5905 12.5661C22.5574 11.7613 21.8484 11.09 20.9703 11.0569C20.0591 11.0569 19.35 11.7613 19.35 12.5992V12.6323C19.3831 13.4713 20.0922 14.1414 20.9691 14.1414C21.8814 14.1414 22.5905 13.4371 22.5905 12.5992V12.5661ZM19.2484 14.1083C19.0794 14.7111 18.843 15.3493 18.505 15.8858C19.4174 16.5559 20.5649 16.8584 21.6794 16.6563C21.9831 16.6233 22.2868 16.5228 22.5905 16.4223C24.1104 15.8196 25.1574 14.3766 25.1905 12.767V12.5661C25.1905 11.5592 25.0558 10.5534 24.7521 9.5808C23.6376 5.52362 20.3628 2.30435 16.2087 1.19698C16.9961 1.84812 17.5625 2.72706 17.8302 3.71307V3.74616C19.9707 4.84348 21.6562 6.65991 22.5905 8.87644C23.0975 10.0512 23.3339 11.3252 23.3339 12.6665C23.3356 13.0188 23.2539 13.3664 23.0955 13.6811C22.9371 13.9958 22.7066 14.2685 22.4227 14.4771C22.012 14.7806 21.5152 14.9449 21.0045 14.9463C20.6707 14.931 20.3433 14.8489 20.0417 14.705C19.74 14.5611 19.4703 14.3582 19.2484 14.1083ZM12.8323 25.2411C5.84299 25.1418 0.204539 19.6085 0.135994 12.7682V12.4987C0.16892 11.4124 0.57452 10.3704 1.28472 9.54771C1.95954 8.77598 2.8719 8.23944 3.88472 7.97116C4.25581 7.87071 4.66118 7.83762 5.03227 7.83762C6.07936 7.83762 7.12645 8.17326 7.97027 8.81026C8.27399 8.40844 8.64508 8.07162 9.05045 7.73716C8.36277 6.84707 8.01573 5.74056 8.0719 4.61716C6.72031 5.40152 5.58357 6.50782 4.76281 7.83762C4.45651 7.86566 4.15194 7.91024 3.85045 7.97116C4.84612 6.14971 6.36297 4.66701 8.20663 3.71307C9.6826 2.96642 11.3129 2.57584 12.967 2.57262C13.7115 2.57262 14.3852 2.90826 14.8248 3.4448C15.1285 3.84662 15.2975 4.3158 15.2975 4.81925C15.2975 5.52362 14.9595 6.12753 14.4868 6.56362C13.9872 6.45626 13.478 6.40003 12.967 6.3958C13.8451 6.3958 14.5884 5.69144 14.5884 4.81925C14.5884 3.94707 13.8794 3.24271 12.967 3.24271H12.9339C12.0558 3.24271 11.3124 3.94707 11.3124 4.81925C11.3124 5.69144 12.0215 6.3958 12.9339 6.3958C14.1157 6.3958 15.2633 6.73026 16.2773 7.30107C16.4782 7.43462 16.7145 7.56935 16.8847 7.70289C17.2901 8.03853 17.6612 8.37416 17.9992 8.77598C17.7959 8.91071 17.6269 9.07853 17.4248 9.24635C16.9675 8.65429 16.3924 8.16337 15.736 7.80453C14.8791 7.32617 13.9152 7.07209 12.9339 7.06589C12.3825 7.05671 11.849 6.86839 11.4141 6.52935C11.1618 6.31392 10.9589 6.04676 10.819 5.74598C10.6791 5.44521 10.6056 5.11787 10.6034 4.78616C10.6034 4.24962 10.8066 3.77926 11.0761 3.41053C10.2966 3.56984 9.5377 3.81724 8.81408 4.14798C8.57772 5.49053 9.08472 6.86498 10.1306 7.80335C10.902 8.49239 11.8996 8.87425 12.9339 8.87644C13.5414 8.87644 14.1488 9.01116 14.6901 9.27825C15.3992 9.64816 15.9724 10.2178 16.3446 10.8891C16.1414 11.4256 16.0066 11.9953 16.0397 12.5992C16.0397 10.9222 14.657 9.5808 12.967 9.5808H12.9339C11.2451 9.61507 9.92854 10.9564 9.92854 12.5992C9.92854 13.2019 9.8269 13.7727 9.62481 14.3093C9.28414 15.1649 8.71106 15.9083 7.97027 16.4554C7.04851 17.1212 5.93238 17.4631 4.7959 17.4281C5.60663 18.7363 6.72108 19.8768 8.10499 20.6473C8.0719 19.5412 8.37563 18.4338 9.08472 17.5628C9.28681 17.7306 9.49008 17.8642 9.69218 17.9646C9.13675 18.659 8.83862 19.5242 8.84836 20.4133C8.84836 20.9499 8.94881 21.4533 9.15208 21.9556C9.46902 22.6906 9.99104 23.3187 10.6557 23.7647C11.3203 24.2107 12.0994 24.4558 12.8996 24.4705H13.1029C14.1291 24.4729 15.151 24.3378 16.1414 24.0687C20.3285 22.9613 23.6034 19.7752 24.7178 15.6849C25.4269 14.8458 25.8665 13.8058 25.8665 12.7339C25.7992 19.5743 20.1264 25.1406 13.1029 25.208H12.9682L12.8323 25.2423V25.2411ZM9.8269 24.1018C9.04021 23.4508 8.47423 22.5723 8.20663 21.5869V21.5526C6.06565 20.4555 4.37974 18.6391 3.44508 16.4223C2.94671 15.2213 2.69434 13.9325 2.7029 12.6323C2.7029 11.8948 3.03972 11.2578 3.61408 10.8217C4.02224 10.5134 4.52077 10.3485 5.03227 10.3525C5.74136 10.3525 6.38308 10.6882 6.78845 11.1562C6.94478 10.53 7.19501 9.93113 7.53063 9.37989C6.62063 8.7098 5.4719 8.40726 4.35745 8.60816C4.01945 8.64244 3.74999 8.74289 3.44508 8.84335C1.92645 9.44607 0.879358 10.8879 0.845085 12.4987V12.6996C0.845085 13.7053 0.980994 14.7123 1.28472 15.6849C1.85562 17.7086 2.94343 19.5488 4.44118 21.0246C5.93893 22.5003 7.79502 23.5609 9.8269 24.1018ZM4.39054 16.6563C5.53927 16.8242 6.68681 16.5559 7.5649 15.8858C8.07657 15.5113 8.49294 15.0216 8.78036 14.4564C9.06779 13.8912 9.2182 13.2663 9.21945 12.6323C9.21945 12.0295 9.35418 11.4587 9.65909 10.9222C9.9959 10.2521 10.6045 9.68125 11.2782 9.31253H11.2451C10.6198 9.07981 10.0464 8.72645 9.55745 8.27253C8.97909 8.71719 8.48652 9.26343 8.10381 9.88453C7.60836 10.7152 7.35155 11.6663 7.36163 12.6334C7.36163 13.2043 7.15836 13.7077 6.78727 14.1095C6.39861 14.5564 5.85508 14.8395 5.26611 14.9018C4.67713 14.964 4.08643 14.8009 3.6129 14.4452C3.7819 15.2157 4.05254 15.9543 4.38936 16.6575L4.39054 16.6563ZM3.47936 12.6996C3.51363 13.5044 4.22272 14.2088 5.09963 14.2088C6.01199 14.2088 6.72108 13.5044 6.72108 12.6665V12.6323C6.68681 11.7943 5.97772 11.1243 5.09963 11.1243C4.18845 11.1243 3.47936 11.8274 3.47936 12.6996C3.47936 12.6665 3.47936 12.6665 3.47936 12.6996ZM36.2665 6.02707H39.812L43.1211 14.7123H43.1542L46.3959 6.02589H49.9756V18.266H47.7467V8.44153H47.7124L43.8633 18.266H42.2761L38.4612 8.44153H38.4269V18.266H36.2665V6.02707ZM56.1542 6.02707H64.5628V7.93689H58.4174V11.0569H64.2579V12.8674H58.4174V16.3219H64.8996V18.2672H56.1542V6.02707ZM74.5574 11.3252C74.8943 11.3252 75.1992 11.2909 75.536 11.2578C75.8409 11.2247 76.1104 11.1243 76.4141 11.0226C76.6847 10.8891 76.8868 10.6882 77.0558 10.4861C77.2248 10.2521 77.3264 9.94953 77.3264 9.5808C77.3264 9.24635 77.2591 8.97807 77.0901 8.77716C76.9211 8.57507 76.7521 8.37416 76.5157 8.27371C76.2451 8.13898 76.0087 8.03853 75.705 8.03853C75.403 7.99691 75.0987 7.97441 74.7938 7.97116H72.7339V11.4256C72.7339 11.3252 74.5574 11.3252 74.5574 11.3252ZM70.4719 6.02707H74.8943C75.4686 6.02707 76.0761 6.09326 76.6504 6.19371C77.1905 6.29535 77.6975 6.52935 78.136 6.79762C78.5756 7.06589 78.9467 7.46889 79.1831 7.90498C79.4537 8.37416 79.5884 8.90953 79.5884 9.54771C79.5884 10.4199 79.3178 11.1573 78.812 11.727C78.305 12.2978 77.5959 12.6665 76.6847 12.8674L80.0612 18.3003H77.3584L74.4204 13.1026H72.7658V18.3003H70.5038V6.02707H70.4719ZM94.2761 8.91071C93.9437 8.4773 93.5008 8.14134 92.9938 7.93807C92.4885 7.73831 91.95 7.63606 91.4066 7.63671C90.7992 7.63671 90.1905 7.73716 89.6173 7.97116C89.0961 8.20095 88.6254 8.5315 88.2323 8.9438C87.8269 9.34562 87.5232 9.81598 87.3211 10.3525C87.1178 10.9222 86.9831 11.5261 87.0173 12.0957C87.0173 12.767 87.1178 13.3709 87.3211 13.9074C87.5232 14.444 87.8269 14.9474 88.1992 15.3493C88.5703 15.7511 89.0087 16.0536 89.5488 16.2876C90.057 16.5228 90.6633 16.6233 91.305 16.6233C91.9359 16.6335 92.5604 16.4959 93.1285 16.2214C93.6355 15.9863 94.074 15.6175 94.412 15.1814L96.2355 16.4223C95.6809 17.1007 94.9756 17.6401 94.1756 17.9977C93.3649 18.3676 92.4194 18.5685 91.305 18.5685C90.3729 18.5741 89.4472 18.4153 88.5703 18.0993C87.774 17.8028 87.0407 17.359 86.4087 16.7911C85.8013 16.1883 85.3285 15.5171 85.0248 14.7465C84.6821 13.9172 84.5097 13.0273 84.5178 12.13C84.5178 11.1573 84.6868 10.2509 85.0248 9.48035C85.3465 8.70667 85.8433 8.01815 86.4761 7.46889C87.1064 6.90618 87.8413 6.4729 88.6388 6.19371C89.9138 5.73343 91.2877 5.61806 92.6215 5.85926C93.0612 5.92544 93.4996 6.02707 93.905 6.19371C94.3104 6.36153 94.6814 6.52935 95.0537 6.76453C95.3905 6.99853 95.7285 7.2668 95.9649 7.56816C95.9992 7.60362 94.2761 8.91071 94.2761 8.91071ZM111.093 13.7727C111.093 14.5113 110.957 15.1814 110.687 15.7853C110.45 16.355 110.079 16.8915 109.607 17.2945C109.134 17.6963 108.594 18.032 107.986 18.266C107.335 18.4941 106.649 18.6076 105.96 18.6016C105.27 18.6075 104.585 18.4939 103.934 18.266C103.334 18.0541 102.782 17.7238 102.312 17.2945C101.857 16.867 101.49 16.3542 101.232 15.7853C100.963 15.1814 100.861 14.5444 100.861 13.7727V6.02707H103.123V13.6734C103.123 14.041 103.157 14.3766 103.259 14.7453C103.36 15.081 103.529 15.4166 103.732 15.6849C103.964 15.9777 104.265 16.208 104.609 16.355C104.947 16.5228 105.419 16.5902 105.96 16.5902C106.5 16.5902 106.939 16.4897 107.31 16.355C107.648 16.1872 107.952 15.9532 108.188 15.6849C108.391 15.4166 108.56 15.081 108.661 14.7453C108.763 14.4097 108.796 14.041 108.796 13.6723V6.02589H111.059C111.092 6.02589 111.093 13.7727 111.093 13.7727ZM121.256 11.3252C121.594 11.3252 121.898 11.2909 122.236 11.2578C122.572 11.2247 122.843 11.1243 123.114 11.0226C123.383 10.8891 123.586 10.6882 123.754 10.4861C123.923 10.2521 124.025 9.94953 124.025 9.5808C124.025 9.24635 123.957 8.97807 123.788 8.77716C123.648 8.55896 123.449 8.38454 123.214 8.27371C122.945 8.13898 122.708 8.03853 122.405 8.03853C122.102 7.9969 121.797 7.9744 121.492 7.97116H119.432V11.4256C119.399 11.3252 121.256 11.3252 121.256 11.3252ZM117.136 6.02707H121.56C122.134 6.02707 122.741 6.09326 123.316 6.19371C123.856 6.29535 124.363 6.52935 124.801 6.79762C125.241 7.06589 125.578 7.4358 125.848 7.90498C126.118 8.37416 126.254 8.90953 126.254 9.54771C126.254 10.4199 125.983 11.1573 125.477 11.727C124.97 12.2978 124.261 12.6665 123.35 12.8674L126.726 18.3003H124.025L121.087 13.1026H119.432V18.3003H117.17C117.136 18.266 117.136 6.02707 117.136 6.02707ZM134.763 12.9679L130.001 6.06016H132.77L135.945 11.1904L139.186 6.06016H141.819L137.059 12.9679V18.266H134.796V12.9679H134.763Z" fill="#71767D"/>
</svg>
