<svg width="26" height="30" viewBox="0 0 26 30" fill="none" xmlns="http://www.w3.org/2000/svg">
<path fill-rule="evenodd" clip-rule="evenodd" d="M3.96888 24.0129H21.156C23.8757 24.0129 25.4282 21.2772 23.7964 19.3602C23.074 18.5115 22.6288 17.5049 22.509 16.4494L22.2649 14.2991C22.0098 14.3286 21.7504 14.3438 21.4874 14.3438C17.7905 14.3438 14.7936 11.3469 14.7936 7.65003C14.7936 6.20586 15.251 4.86851 16.0287 3.77491C15.9989 3.76438 15.969 3.75398 15.939 3.74372V3.58944C15.939 1.72462 14.4273 0.212891 12.5625 0.212891C10.6976 0.212891 9.18591 1.72462 9.18591 3.58944V3.74372C5.99909 4.83484 3.63982 7.42822 3.28114 10.5885L2.61595 16.4494C2.49614 17.5049 2.05094 18.5115 1.32853 19.3602C-0.303304 21.2772 1.24917 24.0129 3.96888 24.0129ZM16.9836 27.0941C16.3032 28.7716 14.5804 29.9627 12.5626 29.9627C10.5448 29.9627 8.82195 28.7716 8.1416 27.0941C8.11322 27.0242 8.10009 26.9491 8.10009 26.8736C8.10009 26.5257 8.38212 26.2436 8.73003 26.2436H16.3952C16.7431 26.2436 17.0251 26.5257 17.0251 26.8736C17.0251 26.9491 17.012 27.0242 16.9836 27.0941Z" fill="#4C4958"/>
<path d="M25.9501 7.65C25.9501 10.1146 23.9522 12.1125 21.4876 12.1125C19.023 12.1125 17.0251 10.1146 17.0251 7.65C17.0251 5.18543 19.023 3.1875 21.4876 3.1875C23.9522 3.1875 25.9501 5.18543 25.9501 7.65Z" fill="#86DBC3"/>
</svg>