<svg width="32" height="32" viewBox="0 0 32 32" fill="none" xmlns="http://www.w3.org/2000/svg">
<path d="M26.0636 3.94393C23.2499 1.69267 19.7533 0.466972 16.1498 0.468752C11.9021 0.468752 7.93465 2.10524 4.96848 5.07698C2.10201 7.95251 0.531072 11.7491 0.543623 15.7647C0.543721 18.7087 1.40804 21.588 3.02938 24.0454L3.04263 24.0642C3.06215 24.0928 3.08237 24.1214 3.10259 24.1493C3.12281 24.1772 3.14791 24.2135 3.15349 24.2225L3.16883 24.2504C3.24762 24.3899 3.30828 24.56 3.25459 24.7315L1.97023 29.3795C1.91885 29.5523 1.89071 29.7313 1.88656 29.9115C1.88563 30.3858 2.0728 30.841 2.40702 31.1774C2.74124 31.5139 3.19524 31.7041 3.66947 31.7063C3.92006 31.698 4.16702 31.6439 4.39811 31.5466L9.10396 29.8481L9.16323 29.8251C9.29124 29.7713 9.42881 29.744 9.56764 29.7449C9.69565 29.7452 9.82253 29.7688 9.94207 29.8146C10.055 29.8585 11.0807 30.2511 12.1629 30.5537C13.0623 30.8047 14.9338 31.1812 16.4002 31.1812C20.5594 31.1812 24.4431 29.5706 27.3354 26.6448C30.2025 23.7414 31.7812 19.882 31.7812 15.7731C31.7815 14.7183 31.6698 13.6665 31.4479 12.6354C30.7269 9.24524 28.815 6.15775 26.0636 3.94393ZM9.46863 18.3188C9.02733 18.3188 8.59594 18.1879 8.22901 17.9427C7.86209 17.6976 7.5761 17.3491 7.40722 16.9414C7.23835 16.5337 7.19416 16.085 7.28025 15.6522C7.36635 15.2194 7.57885 14.8218 7.8909 14.5098C8.20294 14.1977 8.60052 13.9852 9.03334 13.8991C9.46616 13.813 9.91479 13.8572 10.3225 14.0261C10.7302 14.195 11.0787 14.481 11.3238 14.8479C11.569 15.2148 11.6999 15.6462 11.6999 16.0875C11.6999 16.6793 11.4648 17.2468 11.0464 17.6653C10.6279 18.0837 10.0604 18.3188 9.46863 18.3188ZM16.1624 18.3188C15.7211 18.3188 15.2897 18.1879 14.9228 17.9427C14.5558 17.6976 14.2699 17.3491 14.101 16.9414C13.9321 16.5337 13.8879 16.085 13.974 15.6522C14.0601 15.2194 14.2726 14.8218 14.5847 14.5098C14.8967 14.1977 15.2943 13.9852 15.7271 13.8991C16.1599 13.813 16.6085 13.8572 17.0163 14.0261C17.424 14.195 17.7724 14.481 18.0176 14.8479C18.2628 15.2148 18.3936 15.6462 18.3936 16.0875C18.3936 16.6793 18.1586 17.2468 17.7401 17.6653C17.3217 18.0837 16.7542 18.3188 16.1624 18.3188ZM22.8561 18.3188C22.4148 18.3188 21.9835 18.1879 21.6165 17.9427C21.2496 17.6976 20.9636 17.3491 20.7947 16.9414C20.6259 16.5337 20.5817 16.085 20.6678 15.6522C20.7539 15.2194 20.9664 14.8218 21.2784 14.5098C21.5905 14.1977 21.988 13.9852 22.4208 13.8991C22.8537 13.813 23.3023 13.8572 23.71 14.0261C24.1177 14.195 24.4662 14.481 24.7114 14.8479C24.9565 15.2148 25.0874 15.6462 25.0874 16.0875C25.0874 16.6793 24.8523 17.2468 24.4339 17.6653C24.0154 18.0837 23.4479 18.3188 22.8561 18.3188Z" fill="#4C4958"/>
</svg>