<svg width="121" height="27" viewBox="0 0 121 27" fill="none" xmlns="http://www.w3.org/2000/svg">
<path fill-rule="evenodd" clip-rule="evenodd" d="M72.6027 5.54102H74.4967V9.77302H74.6237C75.0657 8.95202 76.0767 8.19302 77.5287 8.19302C79.8027 8.19302 81.2547 9.89902 81.2547 12.046V18.551H79.3607V12.425C79.3607 10.973 78.2867 10.025 76.9607 10.025C75.5707 10.025 74.4337 11.099 74.4337 12.488V18.551H72.5397V5.54102H72.6027ZM32.8777 15.331L31.1097 15.709C31.3617 17.667 32.8777 18.804 35.0887 18.804C37.4887 18.804 39.0667 17.478 39.0667 15.52C39.0667 13.152 37.1137 12.801 35.4597 12.504C34.2457 12.286 33.1937 12.098 33.1937 11.162C33.1937 10.404 33.9517 9.89902 35.0247 9.89902C36.1617 9.89902 36.9827 10.467 37.1727 11.478L38.8777 10.973C38.6247 9.20402 36.9827 8.19302 35.1517 8.19302C32.9417 8.19302 31.4247 9.45702 31.4247 11.162C31.4247 13.432 33.2377 13.81 34.8267 14.141C36.0677 14.399 37.1727 14.63 37.1727 15.709C37.1727 16.53 36.4777 17.099 35.1517 17.099C33.8877 17.099 33.0667 16.531 32.8777 15.331ZM54.4137 8.44602H52.5187V18.551H54.4137V12.615C54.4137 11.099 55.5507 10.025 56.9397 10.025C58.2027 10.025 59.2767 10.972 59.2767 12.425V18.551H61.1717V12.046C61.1717 9.89902 59.7187 8.19402 57.4447 8.19402C55.9927 8.19402 54.9817 8.95102 54.5397 9.77302H54.4137V8.44602ZM88.5817 8.19402C85.8657 8.19402 83.5917 10.278 83.5917 13.499C83.5917 16.594 85.6127 18.804 88.6447 18.804C90.8547 18.804 92.6237 17.667 93.2547 15.646L91.4237 15.204C91.1077 16.467 89.9077 17.162 88.6437 17.162C86.7497 17.162 85.5497 15.962 85.5497 14.004H93.4447V13.372C93.4447 10.404 91.6757 8.19402 88.5817 8.19402ZM88.5817 9.89902C90.0967 9.89902 91.3607 10.846 91.4867 12.551H85.6127C85.7397 11.036 87.0027 9.89902 88.5817 9.89902ZM95.3407 15.709L97.1087 15.33C97.2987 16.53 98.1187 17.099 99.3827 17.099C100.709 17.099 101.404 16.53 101.404 15.709C101.404 14.629 100.299 14.399 99.0587 14.141C97.4687 13.81 95.6557 13.432 95.6557 11.162C95.6557 9.45702 97.1717 8.19402 99.3827 8.19402C101.214 8.19402 102.856 9.20402 103.109 10.972L101.404 11.478C101.214 10.468 100.394 9.89802 99.2557 9.89802C98.1827 9.89802 97.4247 10.404 97.4247 11.162C97.4247 12.098 98.4767 12.286 99.6907 12.504C101.345 12.801 103.299 13.152 103.299 15.52C103.299 17.478 101.72 18.804 99.3187 18.804C97.1087 18.804 95.5927 17.667 95.3407 15.709ZM114.604 8.19402C111.825 8.19402 109.867 10.467 109.867 13.499C109.867 16.594 111.951 18.804 114.667 18.804C116.658 18.804 117.484 17.701 117.871 17.185L117.888 17.162H118.014C118.014 18.046 118.646 18.552 119.467 18.552H120.856V16.783H120.414C120.099 16.783 119.909 16.657 119.909 16.341V8.44602H118.014V9.89902H117.888C117.509 9.33002 116.562 8.19402 114.604 8.19402ZM114.983 9.96202C116.688 9.96202 118.141 11.225 118.141 13.499C118.141 15.457 116.877 17.036 114.983 17.036C113.214 17.036 111.825 15.646 111.825 13.499C111.825 11.415 113.151 9.96202 114.983 9.96202ZM105.887 9.01502V18.551H107.782V8.19402L105.887 9.01502ZM48.4147 8.44602H50.4987L46.3307 19.499C45.7617 20.889 44.7507 21.457 43.1727 21.457H41.3407V19.688H43.1727C43.9927 19.688 44.3727 19.309 44.6887 18.615V18.551H44.1827L40.5827 8.44602H42.6667L45.4467 16.72H45.5727L48.4147 8.44602ZM107.846 5.54102H105.952V7.43602H107.846V5.54102ZM70.0147 8.44602V10.089H67.1087V15.521C67.1087 16.468 67.4887 16.847 68.3727 16.847H69.9517V18.552H68.3097C66.4147 18.552 65.1517 17.668 65.1517 15.584V10.089H63.3197V8.44602H65.2777V6.29902L67.0457 5.54102V8.44602H70.0147Z" fill="#71767D"/>
<mask id="mask0_481_35972" style="mask-type:luminance" maskUnits="userSpaceOnUse" x="0" y="0" width="27" height="27">
<path d="M26.1827 0.867188H0.919724V26.1312H26.1827V0.867188Z" fill="white"/>
</mask>
<g mask="url(#mask0_481_35972)">
<path d="M6.00873 7.78019C5.63173 7.78019 5.19173 7.65519 4.94073 7.34019C4.62673 7.08919 4.50073 6.71219 4.43773 6.27219C4.37473 5.83219 4.56373 5.45519 4.81473 5.14119C4.94273 4.98134 5.10561 4.85291 5.2909 4.76572C5.47619 4.67854 5.67897 4.63491 5.88373 4.63819C8.39673 4.38719 10.7227 3.19319 12.4817 1.37019C12.6077 1.24419 12.7967 1.11919 12.9847 0.993187C13.1737 0.930187 13.3617 0.867188 13.5507 0.867188C13.7387 0.867188 13.9277 0.867187 14.1787 0.993187C14.3677 1.05619 14.5557 1.18219 14.6817 1.30719C14.8067 1.43319 14.9327 1.62219 15.0587 1.81019C15.1217 1.99919 15.1847 2.18719 15.1847 2.37619C15.1847 2.56419 15.1847 2.75319 15.0587 3.00419C14.9921 3.19281 14.8849 3.36451 14.7447 3.50719C12.4817 5.89519 9.46473 7.40319 6.19773 7.71719C6.13473 7.78019 6.07173 7.78019 6.00873 7.78019Z" fill="url(#paint0_radial_481_35972)"/>
<path d="M21.0927 19.2188C21.4707 19.2188 21.9097 19.3438 22.1617 19.6588C22.4127 19.9728 22.6017 20.2867 22.6647 20.7267C22.6647 21.1037 22.5387 21.5437 22.2877 21.8577C22.1597 22.0176 21.9968 22.146 21.8116 22.2332C21.6263 22.3204 21.4235 22.364 21.2187 22.3608C18.7047 22.6118 16.3797 23.8057 14.6197 25.6287C14.4947 25.7537 14.3057 25.8798 14.1177 26.0058C13.9287 26.0688 13.7407 26.1318 13.5517 26.1318C13.3637 26.1318 13.1747 26.1318 12.9237 26.0058C12.7351 25.9391 12.5635 25.8319 12.4207 25.6917C12.2801 25.5359 12.1539 25.3675 12.0437 25.1887C11.9807 24.9997 11.9177 24.8117 11.9177 24.6227C11.9177 24.4347 11.9177 24.2458 12.0437 23.9948C12.1067 23.8058 12.2317 23.6178 12.3577 23.4918C14.6197 21.1038 17.6367 19.5957 20.9047 19.2817C21.0307 19.2187 21.0927 19.2188 21.0927 19.2188Z" fill="url(#paint1_radial_481_35972)"/>
<path d="M19.2697 5.95772C19.2697 5.58072 19.3947 5.14072 19.7097 4.88872C19.9607 4.57472 20.3377 4.44872 20.7777 4.38672C21.1547 4.38672 21.5947 4.51172 21.9087 4.76372C22.2227 5.01472 22.4117 5.39172 22.4117 5.83172C22.6627 8.34572 23.8567 10.6717 25.6797 12.4307C25.8057 12.5557 25.9307 12.7447 26.0567 12.9327C26.1197 13.1217 26.1827 13.3107 26.1827 13.4987C26.1827 13.6877 26.1827 13.8757 26.0567 14.1277C25.99 14.316 25.8828 14.4873 25.7427 14.6297C25.587 14.7706 25.4186 14.8968 25.2397 15.0067C25.0507 15.0697 24.8627 15.1327 24.6737 15.1327C24.4857 15.1327 24.2967 15.1327 24.0457 15.0067C23.8571 14.94 23.6855 14.8328 23.5427 14.6927C21.1547 12.4307 19.6467 9.41372 19.3327 6.14572C19.2697 6.08272 19.2697 6.02072 19.2697 5.95772Z" fill="url(#paint2_radial_481_35972)"/>
<path d="M7.83272 21.0402C7.83272 21.4172 7.70672 21.8572 7.39272 22.1092C7.14172 22.4232 6.76472 22.5492 6.32472 22.6112C5.94772 22.6112 5.50772 22.4862 5.19372 22.2342C5.03407 22.1063 4.90576 21.9436 4.81858 21.7585C4.73141 21.5734 4.68768 21.3708 4.69072 21.1662C4.43872 18.6522 3.24472 16.3262 1.42272 14.5672C1.29672 14.4422 1.17072 14.2532 1.04572 14.0652C0.982723 13.8762 0.919724 13.6872 0.919724 13.4992C0.919724 13.3102 0.919723 13.1222 1.04572 12.8702C1.10872 12.6822 1.23372 12.4932 1.35972 12.3682C1.48572 12.2422 1.67372 12.1162 1.86272 11.9912C2.05072 11.9282 2.23972 11.8652 2.42772 11.8652C2.61672 11.8652 2.80472 11.8652 3.05672 11.9912C3.24472 12.0542 3.43372 12.1792 3.55972 12.3052C5.94772 14.5672 7.45572 17.5842 7.76972 20.8522C7.80355 20.9098 7.82501 20.9739 7.83272 21.0402Z" fill="url(#paint3_radial_481_35972)"/>
<path d="M12.2947 4.13527C11.9817 3.88427 11.8557 3.44427 11.7927 3.06727C11.7927 2.69027 11.9187 2.25027 12.1697 1.99927C12.2977 1.83942 12.4606 1.71099 12.6459 1.6238C12.8312 1.53662 13.034 1.49299 13.2387 1.49627C13.6787 1.49627 14.0557 1.62227 14.3687 1.87327C16.3177 3.44427 18.8317 4.32327 21.3457 4.26127C21.5337 4.26127 21.7227 4.26127 21.9737 4.38727C22.1627 4.44927 22.3507 4.57527 22.4767 4.70127C22.6017 4.82727 22.7277 5.01527 22.8537 5.20427C22.9167 5.39227 22.9797 5.58127 22.9797 5.76927C22.9797 5.95827 22.9797 6.14627 22.8537 6.39827C22.787 6.58652 22.6798 6.75786 22.5397 6.90027C22.3838 7.04092 22.2155 7.16711 22.0367 7.27727C21.8477 7.34027 21.6597 7.40327 21.4707 7.40327C18.2027 7.46627 14.9977 6.39827 12.4837 4.32327L12.2957 4.13527H12.2947Z" fill="url(#paint4_radial_481_35972)"/>
<path d="M14.8687 22.9269C15.1837 23.1769 15.3087 23.6169 15.3717 23.9949C15.3717 24.3719 15.2457 24.8119 14.9947 25.0629C14.8668 25.2226 14.7041 25.3509 14.519 25.4381C14.3339 25.5253 14.1313 25.569 13.9267 25.5659C13.5497 25.5659 13.1097 25.4399 12.7957 25.1889C10.8467 23.6179 8.33272 22.7379 5.81972 22.8009C5.63072 22.8009 5.44272 22.8009 5.19072 22.6749C5.00212 22.6083 4.83042 22.5011 4.68772 22.3609C4.56272 22.2349 4.43772 22.0469 4.31072 21.8579C4.24872 21.6699 4.18572 21.4809 4.18572 21.2929C4.18572 21.1039 4.18572 20.9159 4.31072 20.6639C4.37372 20.4759 4.49972 20.2869 4.62572 20.1609C4.75072 20.0359 4.93972 19.9099 5.12772 19.7839C5.31672 19.7209 5.50472 19.6589 5.69372 19.6589C8.96172 19.5959 12.1667 20.6639 14.6807 22.7379L14.8687 22.9269Z" fill="url(#paint5_radial_481_35972)"/>
<path d="M22.9797 12.2422C23.2307 11.9282 23.6707 11.8022 24.0477 11.7402C24.4247 11.7402 24.8647 11.8652 25.1157 12.1172C25.4307 12.3672 25.6187 12.7452 25.6187 13.1852C25.6187 13.5622 25.4937 14.0022 25.2417 14.3162C23.6707 16.2642 22.7917 18.7782 22.8537 21.2922C22.8537 21.4802 22.8537 21.6692 22.7277 21.9202C22.6611 22.1088 22.5539 22.2805 22.4137 22.4232C22.2877 22.5492 22.0997 22.6742 21.9107 22.8002C21.7227 22.8632 21.5337 22.9262 21.3457 22.9262C21.1567 22.9262 20.9687 22.9262 20.7167 22.8002C20.5285 22.7334 20.3571 22.6263 20.2147 22.4862C20.0738 22.3303 19.9473 22.162 19.8367 21.9832C19.7747 21.7942 19.7117 21.6062 19.7117 21.4172C19.6487 18.1502 20.7167 14.9442 22.7917 12.4312C22.9167 12.3052 22.9167 12.2422 22.9797 12.2422Z" fill="url(#paint6_radial_481_35972)"/>
<path d="M4.18773 14.8188C3.93773 15.1328 3.49773 15.2588 3.11973 15.3208C2.74273 15.3208 2.30273 15.1958 2.05173 14.9438C1.89207 14.8158 1.76376 14.6531 1.67659 14.468C1.58941 14.2829 1.54568 14.0803 1.54873 13.8758C1.54873 13.4988 1.67473 13.0588 1.92573 12.7448C3.49673 10.7968 4.37673 8.28277 4.31373 5.76877C4.31373 5.58077 4.31373 5.39177 4.43973 5.14077C4.50273 4.95177 4.62773 4.76377 4.75373 4.63777C4.87973 4.51177 5.06773 4.38677 5.25673 4.26077C5.44473 4.19777 5.63373 4.13477 5.82173 4.13477C6.01073 4.13477 6.19973 4.13477 6.45073 4.26077C6.63873 4.32377 6.82773 4.44877 6.95373 4.57477C7.07873 4.70077 7.20473 4.88877 7.33073 5.07777C7.39373 5.26577 7.45573 5.45477 7.45573 5.64277C7.51873 8.91077 6.45073 12.1158 4.37673 14.6298C4.25073 14.6928 4.18773 14.7558 4.18773 14.8188Z" fill="url(#paint7_radial_481_35972)"/>
</g>
<defs>
<radialGradient id="paint0_radial_481_35972" cx="0" cy="0" r="1" gradientUnits="userSpaceOnUse" gradientTransform="translate(13.6547 2.44119) scale(9.771 9.76925)">
<stop offset="0.15"/>
<stop offset="1" stop-opacity="0.1"/>
</radialGradient>
<radialGradient id="paint1_radial_481_35972" cx="0" cy="0" r="1" gradientUnits="userSpaceOnUse" gradientTransform="translate(13.4747 24.5808) rotate(180) scale(9.771 9.76925)">
<stop offset="0.15"/>
<stop offset="1" stop-opacity="0.1"/>
</radialGradient>
<radialGradient id="paint2_radial_481_35972" cx="0" cy="0" r="1" gradientUnits="userSpaceOnUse" gradientTransform="translate(24.6347 13.6007) rotate(90) scale(9.76925 9.771)">
<stop offset="0.15"/>
<stop offset="1" stop-opacity="0.1"/>
</radialGradient>
<radialGradient id="paint3_radial_481_35972" cx="0" cy="0" r="1" gradientUnits="userSpaceOnUse" gradientTransform="translate(2.49372 13.4192) rotate(-90) scale(9.76925 9.771)">
<stop offset="0.15"/>
<stop offset="1" stop-opacity="0.1"/>
</radialGradient>
<radialGradient id="paint4_radial_481_35972" cx="0" cy="0" r="1" gradientUnits="userSpaceOnUse" gradientTransform="translate(21.4538 5.74882) rotate(44.995) scale(9.77015)">
<stop offset="0.15"/>
<stop offset="1" stop-opacity="0.1"/>
</radialGradient>
<radialGradient id="paint5_radial_481_35972" cx="0" cy="0" r="1" gradientUnits="userSpaceOnUse" gradientTransform="translate(5.6844 21.2756) rotate(-135.006) scale(9.77015)">
<stop offset="0.15"/>
<stop offset="1" stop-opacity="0.1"/>
</radialGradient>
<radialGradient id="paint6_radial_481_35972" cx="0" cy="0" r="1" gradientUnits="userSpaceOnUse" gradientTransform="translate(21.3254 21.4158) rotate(135.006) scale(9.77015)">
<stop offset="0.15"/>
<stop offset="1" stop-opacity="0.1"/>
</radialGradient>
<radialGradient id="paint7_radial_481_35972" cx="0" cy="0" r="1" gradientUnits="userSpaceOnUse" gradientTransform="translate(5.80481 5.61446) rotate(-44.995) scale(9.77015)">
<stop offset="0.15"/>
<stop offset="1" stop-opacity="0.1"/>
</radialGradient>
</defs>
</svg>
