<svg width="92" height="25" viewBox="0 0 92 25" fill="none" xmlns="http://www.w3.org/2000/svg">
<path d="M21.7891 17.0459L21.7768 17.0046L29.9194 9.55792V5.96916H16.8552V9.55716H24.659L24.6712 9.59234L16.6082 17.0459V20.6339H30.0509V17.0459H21.7891ZM38.0704 5.62734C36.5639 5.62734 35.3351 5.85445 34.3861 6.30869C33.502 6.70423 32.7572 7.35613 32.2479 8.17992C31.7612 9.00885 31.4555 9.93143 31.3509 10.887L35.3152 11.4445C35.4589 10.6002 35.7457 10.0022 36.1755 9.64969C36.6648 9.2812 37.2674 9.09511 37.8792 9.12357C38.6837 9.12357 39.2672 9.33769 39.6304 9.76822C39.9898 10.198 40.1718 10.7929 40.1718 11.5775V11.9683H36.3605C34.4205 11.9683 33.0264 12.398 32.1791 13.2576C31.3318 14.1171 30.9089 15.2512 30.9097 16.6605C30.9097 18.105 31.3334 19.1795 32.1791 19.8837C33.0256 20.5888 34.0894 20.939 35.371 20.9345C36.9616 20.9345 38.1851 20.3885 39.0408 19.2949C39.5461 18.6234 39.907 17.8545 40.1007 17.0367H40.2452L40.7912 20.6247H44.3831V11.5385C44.3831 9.66039 43.8875 8.20592 42.8972 7.17434C41.9062 6.14351 40.2972 5.62734 38.0704 5.62734ZM39.3268 16.8287C38.7564 17.3029 38.0108 17.5399 37.0809 17.5399C36.3154 17.5399 35.7832 17.4061 35.4849 17.1377C35.34 17.0109 35.2247 16.8538 35.1471 16.6775C35.0695 16.5013 35.0316 16.3101 35.0361 16.1176C35.0274 15.9358 35.0558 15.7541 35.1197 15.5837C35.1836 15.4133 35.2816 15.2578 35.4077 15.1265C35.544 14.9987 35.7049 14.8999 35.8805 14.8361C36.0561 14.7722 36.2428 14.7446 36.4294 14.7549H40.1787V15.0019C40.1866 15.3513 40.1138 15.6979 39.9661 16.0148C39.8183 16.3316 39.5996 16.6101 39.3268 16.8287ZM66.1007 5.96916H61.8566V20.6362H66.1007V5.96916ZM91.1532 5.96916C89.9549 5.96916 89.0098 6.39204 88.3185 7.23704C87.8229 7.84422 87.4452 8.74198 87.1875 9.92881H87.0628L86.5076 5.96916H82.8837V20.6339H87.1271V13.1138C87.1271 12.1656 87.3496 11.4383 87.7939 10.9329C88.2382 10.4266 89.0587 10.1743 90.2547 10.1743H91.8652V5.96916H91.1532ZM78.6778 6.44863C77.6875 5.85981 76.438 5.56616 74.9292 5.56769C72.5548 5.56769 70.6966 6.24292 69.3545 7.59416C68.0117 8.94463 67.3411 10.8067 67.3411 13.1803C67.3068 14.6154 67.6203 16.0374 68.2549 17.325C68.8363 18.4728 69.7413 19.4251 70.8579 20.0642C71.9821 20.7142 73.3188 21.0385 74.8688 21.04C76.2094 21.04 77.3297 20.8335 78.2282 20.4213C79.0733 20.051 79.8095 19.4702 80.3663 18.7344C80.8962 18.0127 81.2899 17.2002 81.5279 16.337L77.8718 15.3139C77.7176 15.8753 77.4213 16.3876 77.0115 16.8012C76.5978 17.2134 75.9065 17.4199 74.9354 17.4199C73.7814 17.4199 72.9211 17.0895 72.3545 16.4288C71.9438 15.9524 71.6861 15.271 71.5714 14.3878H81.5837C81.625 13.9749 81.6464 13.6292 81.6464 13.3501V12.437C81.6704 11.2102 81.4168 9.9939 80.9046 8.87887C80.4243 7.86285 79.6481 7.01573 78.6778 6.44863ZM74.8069 9.06392C76.5275 9.06392 77.5032 9.90969 77.7342 11.6012H71.6471C71.7436 11.0367 71.9776 10.5046 72.3285 10.0519C72.8867 9.39122 73.7133 9.0624 74.8069 9.06392ZM64.0253 0.0579829C63.706 0.0472698 63.3879 0.100772 63.0897 0.215316C62.7915 0.329861 62.5194 0.503116 62.2894 0.724806C62.0631 0.948495 61.8858 1.21671 61.7685 1.51248C61.6512 1.80824 61.5966 2.12513 61.6081 2.4431C61.5904 2.92572 61.7233 3.40189 61.9883 3.80565C62.2533 4.20942 62.6372 4.5208 63.087 4.69669C63.3852 4.81369 63.7049 4.86798 64.0253 4.85651C64.3437 4.86846 64.661 4.81406 64.9572 4.69676C65.2534 4.57946 65.522 4.40183 65.7459 4.17516C65.9679 3.94629 66.1412 3.67483 66.2554 3.37714C66.3696 3.07946 66.4224 2.76172 66.4104 2.4431C66.4253 2.12638 66.3738 1.81005 66.2592 1.51441C66.1446 1.21876 65.9695 0.950333 65.7451 0.726336C65.5207 0.502257 65.2521 0.327374 64.9564 0.21283C64.6607 0.0982862 64.3444 0.0465922 64.0276 0.0610418L64.0253 0.0579829ZM55.2595 5.56769C53.8142 5.56769 52.6518 6.02116 51.7747 6.9281C51.1247 7.59951 50.6483 8.60281 50.3447 9.93569H50.2086L49.6542 5.97604H46.0295V24.8497H50.2736V17.0757H50.4281C50.5581 17.5942 50.7393 18.0982 50.971 18.5799C51.33 19.3648 51.9185 20.0226 52.6587 20.4665C53.4269 20.8853 54.2922 21.0937 55.1669 21.0706C56.9433 21.0706 58.2961 20.3793 59.2252 18.9967C60.1544 17.6149 60.6193 15.6855 60.6193 13.2102C60.6193 10.8197 60.1696 8.94845 59.2704 7.59645C58.3718 6.24369 57.0344 5.56769 55.2595 5.56769ZM55.6892 16.1948C55.1945 16.9113 54.4198 17.2692 53.3661 17.2692C52.9317 17.2891 52.4989 17.2054 52.1033 17.0249C51.7077 16.8445 51.3608 16.5725 51.0911 16.2315C50.5412 15.5425 50.2675 14.5996 50.269 13.4021V13.1222C50.269 11.9063 50.5428 10.9749 51.0911 10.3295C51.6386 9.68334 52.3972 9.36369 53.3661 9.37057C54.4389 9.37057 55.2182 9.71087 55.7045 10.3915C56.1901 11.072 56.4333 12.0203 56.4333 13.2385C56.4364 14.4972 56.1894 15.4829 55.6938 16.1948H55.6892ZM14.9648 17.0459H0.283234V20.6385H14.9656V17.0459H14.9648Z" fill="#71767D"/>
</svg>